# compute-mfcc-feats --write-utt2dur=ark,t:exp/make_mfcc/utt2dur.8 --verbose=2 --config=conf/mfcc.conf scp,p:exp/make_mfcc/wav_sre16_major.8.scp ark:- | copy-feats --write-num-frames=ark,t:exp/make_mfcc/utt2num_frames.8 --compress=true ark:- ark,scp:/home/kaldinew/kaldi/egs/sre16/v2-callhome/mfcc/raw_mfcc_sre16_major.8.ark,/home/kaldinew/kaldi/egs/sre16/v2-callhome/mfcc/raw_mfcc_sre16_major.8.scp 
# Started at Mon Jun 21 15:37:54 EDT 2021
#
compute-mfcc-feats --write-utt2dur=ark,t:exp/make_mfcc/utt2dur.8 --verbose=2 --config=conf/mfcc.conf scp,p:exp/make_mfcc/wav_sre16_major.8.scp ark:- 
copy-feats --write-num-frames=ark,t:exp/make_mfcc/utt2num_frames.8 --compress=true ark:- ark,scp:/home/kaldinew/kaldi/egs/sre16/v2-callhome/mfcc/raw_mfcc_sre16_major.8.ark,/home/kaldinew/kaldi/egs/sre16/v2-callhome/mfcc/raw_mfcc_sre16_major.8.scp 
ffmpeg version 3.4.8-0ubuntu0.2 Copyright (c) 2000-2020 the FFmpeg developers
  built with gcc 7 (Ubuntu 7.5.0-3ubuntu1~18.04)
  configuration: --prefix=/usr --extra-version=0ubuntu0.2 --toolchain=hardened --libdir=/usr/lib/x86_64-linux-gnu --incdir=/usr/include/x86_64-linux-gnu --enable-gpl --disable-stripping --enable-avresample --enable-avisynth --enable-gnutls --enable-ladspa --enable-libass --enable-libbluray --enable-libbs2b --enable-libcaca --enable-libcdio --enable-libflite --enable-libfontconfig --enable-libfreetype --enable-libfribidi --enable-libgme --enable-libgsm --enable-libmp3lame --enable-libmysofa --enable-libopenjpeg --enable-libopenmpt --enable-libopus --enable-libpulse --enable-librubberband --enable-librsvg --enable-libshine --enable-libsnappy --enable-libsoxr --enable-libspeex --enable-libssh --enable-libtheora --enable-libtwolame --enable-libvorbis --enable-libvpx --enable-libwavpack --enable-libwebp --enable-libx265 --enable-libxml2 --enable-libxvid --enable-libzmq --enable-libzvbi --enable-omx --enable-openal --enable-opengl --enable-sdl2 --enable-libdc1394 --enable-libdrm --enable-libiec61883 --enable-chromaprint --enable-frei0r --enable-libopencv --enable-libx264 --enable-shared
  libavutil      55. 78.100 / 55. 78.100
  libavcodec     57.107.100 / 57.107.100
  libavformat    57. 83.100 / 57. 83.100
  libavdevice    57. 10.100 / 57. 10.100
  libavfilter     6.107.100 /  6.107.100
  libavresample   3.  7.  0 /  3.  7.  0
  libswscale      4.  8.100 /  4.  8.100
  libswresample   2.  9.100 /  2.  9.100
  libpostproc    54.  7.100 / 54.  7.100
Guessed Channel Layout for Input Stream #0.0 : mono
Input #0, wav, from '/media/kaldinew/data2/large-farsdat/CD6/011/Fixed/011F06.wav':
  Duration: 00:02:14.40, bitrate: 352 kb/s
    Stream #0:0: Audio: pcm_s16le ([1][0][0][0] / 0x0001), 22050 Hz, mono, s16, 352 kb/s
Stream mapping:
  Stream #0:0 -> #0:0 (pcm_s16le (native) -> pcm_s16le (native))
Press [q] to stop, [?] for help
Output #0, wav, to 'pipe:':
  Metadata:
    ISFT            : Lavf57.83.100
    Stream #0:0: Audio: pcm_s16le ([1][0][0][0] / 0x0001), 8000 Hz, mono, s16, 128 kb/s
    Metadata:
      encoder         : VLOG[1] (compute-mfcc-feats[5.5.931~1-aecd]:Read():wave-reader.cc:249) Read in RIFF chunk size: 4294967295, data chunk size: 4294967295. Assume 'stream mode' (reading data to EOF).
Lavc57.107.100 pcm_s16le
size=     107kB time=00:00:06.87 bitrate= 128.1kbits/s speed=9.67x    size=     502kB time=00:00:32.13 bitrate= 128.0kbits/s speed=20.8x    size=     920kB time=00:00:58.88 bitrate= 128.0kbits/s speed=27.4x    size=    1385kB time=00:01:28.60 bitrate= 128.0kbits/s speed=31.3x    size=    1849kB time=00:01:58.32 bitrate= 128.0kbits/s speed=  35x    size=    1875kB time=00:02:00.00 bitrate= 128.0kbits/s speed=35.5x    
video:0kB audio:1875kB subtitle:0kB other streams:0kB global headers:0kB muxing overhead: 0.004062%
VLOG[2] (compute-mfcc-feats[5.5.931~1-aecd]:main():compute-mfcc-feats.cc:182) Processed features for key utt-011F06
ffmpeg version 3.4.8-0ubuntu0.2 Copyright (c) 2000-2020 the FFmpeg developers
  built with gcc 7 (Ubuntu 7.5.0-3ubuntu1~18.04)
  configuration: --prefix=/usr --extra-version=0ubuntu0.2 --toolchain=hardened --libdir=/usr/lib/x86_64-linux-gnu --incdir=/usr/include/x86_64-linux-gnu --enable-gpl --disable-stripping --enable-avresample --enable-avisynth --enable-gnutls --enable-ladspa --enable-libass --enable-libbluray --enable-libbs2b --enable-libcaca --enable-libcdio --enable-libflite --enable-libfontconfig --enable-libfreetype --enable-libfribidi --enable-libgme --enable-libgsm --enable-libmp3lame --enable-libmysofa --enable-libopenjpeg --enable-libopenmpt --enable-libopus --enable-libpulse --enable-librubberband --enable-librsvg --enable-libshine --enable-libsnappy --enable-libsoxr --enable-libspeex --enable-libssh --enable-libtheora --enable-libtwolame --enable-libvorbis --enable-libvpx --enable-libwavpack --enable-libwebp --enable-libx265 --enable-libxml2 --enable-libxvid --enable-libzmq --enable-libzvbi --enable-omx --enable-openal --enable-opengl --enable-sdl2 --enable-libdc1394 --enable-libdrm --enable-libiec61883 --enable-chromaprint --enable-frei0r --enable-libopencv --enable-libx264 --enable-shared
  libavutil      55. 78.100 / 55. 78.100
  libavcodec     57.107.100 / 57.107.100
  libavformat    57. 83.100 / 57. 83.100
  libavdevice    57. 10.100 / 57. 10.100
  libavfilter     6.107.100 /  6.107.100
  libavresample   3.  7.  0 /  3.  7.  0
  libswscale      4.  8.100 /  4.  8.100
  libswresample   2.  9.100 /  2.  9.100
  libpostproc    54.  7.100 / 54.  7.100
Guessed Channel Layout for Input Stream #0.0 : mono
Input #0, wav, from '/media/kaldinew/data2/large-farsdat/CD6/011/Fixed/011F07.wav':
  Duration: 00:02:15.60, bitrate: 352 kb/s
    Stream #0:0: Audio: pcm_s16le ([1][0][0][0] / 0x0001), 22050 Hz, mono, s16, 352 kb/s
Stream mapping:
  Stream #0:0 -> #0:0 (pcm_s16le (native) -> pcm_s16le (native))
Press [q] to stop, [?] for help
Output #0, wav, to 'pipe:':
  Metadata:
    ISFT            : Lavf57.83.100
    Stream #0:0: Audio: pcm_s16le ([1][0][0][0] / 0x0001), 8000 Hz, mono, s16, 128 kb/s
    Metadata:
      encoder         : Lavc57.107.100 pcm_s16le
VLOG[1] (compute-mfcc-feats[5.5.931~1-aecd]:Read():wave-reader.cc:249) Read in RIFF chunk size: 4294967295, data chunk size: 4294967295. Assume 'stream mode' (reading data to EOF).
size=     107kB time=00:00:06.87 bitrate= 128.1kbits/s speed=11.4x    size=     525kB time=00:00:33.62 bitrate= 128.0kbits/s speed=26.5x    size=     943kB time=00:01:00.36 bitrate= 128.0kbits/s speed=31.1x    size=    1408kB time=00:01:30.09 bitrate= 128.0kbits/s speed=34.8x    size=    1826kB time=00:01:56.84 bitrate= 128.0kbits/s speed=  35x    size=    1875kB time=00:02:00.00 bitrate= 128.0kbits/s speed=35.9x    
video:0kB audio:1875kB subtitle:0kB other streams:0kB global headers:0kB muxing overhead: 0.004062%
VLOG[2] (compute-mfcc-feats[5.5.931~1-aecd]:main():compute-mfcc-feats.cc:182) Processed features for key utt-011F07
ffmpeg version 3.4.8-0ubuntu0.2 Copyright (c) 2000-2020 the FFmpeg developers
  built with gcc 7 (Ubuntu 7.5.0-3ubuntu1~18.04)
  configuration: --prefix=/usr --extra-version=0ubuntu0.2 --toolchain=hardened --libdir=/usr/lib/x86_64-linux-gnu --incdir=/usr/include/x86_64-linux-gnu --enable-gpl --disable-stripping --enable-avresample --enable-avisynth --enable-gnutls --enable-ladspa --enable-libass --enable-libbluray --enable-libbs2b --enable-libcaca --enable-libcdio --enable-libflite --enable-libfontconfig --enable-libfreetype --enable-libfribidi --enable-libgme --enable-libgsm --enable-libmp3lame --enable-libmysofa --enable-libopenjpeg --enable-libopenmpt --enable-libopus --enable-libpulse --enable-librubberband --enable-librsvg --enable-libshine --enable-libsnappy --enable-libsoxr --enable-libspeex --enable-libssh --enable-libtheora --enable-libtwolame --enable-libvorbis --enable-libvpx --enable-libwavpack --enable-libwebp --enable-libx265 --enable-libxml2 --enable-libxvid --enable-libzmq --enable-libzvbi --enable-omx --enable-openal --enable-opengl --enable-sdl2 --enable-libdc1394 --enable-libdrm --enable-libiec61883 --enable-chromaprint --enable-frei0r --enable-libopencv --enable-libx264 --enable-shared
  libavutil      55. 78.100 / 55. 78.100
  libavcodec     57.107.100 / 57.107.100
  libavformat    57. 83.100 / 57. 83.100
  libavdevice    57. 10.100 / 57. 10.100
  libavfilter     6.107.100 /  6.107.100
  libavresample   3.  7.  0 /  3.  7.  0
  libswscale      4.  8.100 /  4.  8.100
  libswresample   2.  9.100 /  2.  9.100
  libpostproc    54.  7.100 / 54.  7.100
Guessed Channel Layout for Input Stream #0.0 : mono
Input #0, wav, from '/media/kaldinew/data2/large-farsdat/CD6/011/Fixed/011F08.wav':
  Duration: 00:02:28.62, bitrate: 352 kb/s
    Stream #0:0: Audio: pcm_s16le ([1][0][0][0] / 0x0001), 22050 Hz, mono, s16, 352 kb/s
Stream mapping:
  Stream #0:0 -> #0:0 (pcm_s16le (native) -> pcm_s16le (native))
Press [q] to stop, [?] for help
Output #0, wav, to 'pipe:':
  Metadata:
    ISFT            : Lavf57.83.100
VLOG[1] (compute-mfcc-feats[5.5.931~1-aecd]:Read():wave-reader.cc:249) Read in RIFF chunk size: 4294967295, data chunk size: 4294967295. Assume 'stream mode' (reading data to EOF).
    Stream #0:0: Audio: pcm_s16le ([1][0][0][0] / 0x0001), 8000 Hz, mono, s16, 128 kb/s
    Metadata:
      encoder         : Lavc57.107.100 pcm_s16le
size=     107kB time=00:00:06.87 bitrate= 128.1kbits/s speed=9.87x    size=     502kB time=00:00:32.13 bitrate= 128.0kbits/s speed=25.7x    size=     967kB time=00:01:01.85 bitrate= 128.0kbits/s speed=33.4x    size=    1617kB time=00:01:43.46 bitrate= 128.0kbits/s speed=41.2x    size=    1875kB time=00:02:00.00 bitrate= 128.0kbits/s speed=47.6x    
video:0kB audio:1875kB subtitle:0kB other streams:0kB global headers:0kB muxing overhead: 0.004062%
VLOG[2] (compute-mfcc-feats[5.5.931~1-aecd]:main():compute-mfcc-feats.cc:182) Processed features for key utt-011F08
ffmpeg version 3.4.8-0ubuntu0.2 Copyright (c) 2000-2020 the FFmpeg developers
  built with gcc 7 (Ubuntu 7.5.0-3ubuntu1~18.04)
  configuration: --prefix=/usr --extra-version=0ubuntu0.2 --toolchain=hardened --libdir=/usr/lib/x86_64-linux-gnu --incdir=/usr/include/x86_64-linux-gnu --enable-gpl --disable-stripping --enable-avresample --enable-avisynth --enable-gnutls --enable-ladspa --enable-libass --enable-libbluray --enable-libbs2b --enable-libcaca --enable-libcdio --enable-libflite --enable-libfontconfig --enable-libfreetype --enable-libfribidi --enable-libgme --enable-libgsm --enable-libmp3lame --enable-libmysofa --enable-libopenjpeg --enable-libopenmpt --enable-libopus --enable-libpulse --enable-librubberband --enable-librsvg --enable-libshine --enable-libsnappy --enable-libsoxr --enable-libspeex --enable-libssh --enable-libtheora --enable-libtwolame --enable-libvorbis --enable-libvpx --enable-libwavpack --enable-libwebp --enable-libx265 --enable-libxml2 --enable-libxvid --enable-libzmq --enable-libzvbi --enable-omx --enable-openal --enable-opengl --enable-sdl2 --enable-libdc1394 --enable-libdrm --enable-libiec61883 --enable-chromaprint --enable-frei0r --enable-libopencv --enable-libx264 --enable-shared
  libavutil      55. 78.100 / 55. 78.100
  libavcodec     57.107.100 / 57.107.100
  libavformat    57. 83.100 / 57. 83.100
  libavdevice    57. 10.100 / 57. 10.100
  libavfilter     6.107.100 /  6.107.100
  libavresample   3.  7.  0 /  3.  7.  0
  libswscale      4.  8.100 /  4.  8.100
  libswresample   2.  9.100 /  2.  9.100
  libpostproc    54.  7.100 / 54.  7.100
Guessed Channel Layout for Input Stream #0.0 : mono
Input #0, wav, from '/media/kaldinew/data2/large-farsdat/CD6/011/Fixed/011F09.wav':
  Duration: 00:02:22.05, bitrate: 352 kb/s
    Stream #0:0: Audio: pcm_s16le ([1][0][0][0] / 0x0001), 22050 Hz, mono, s16, 352 kb/s
Stream mapping:
  Stream #0:0 -> #0:0 (pcm_s16le (native) -> pcm_s16le (native))
Press [q] to stop, [?] for help
Output #0, wav, to 'pipe:':
  Metadata:
    ISFT            : Lavf57.83.100
VLOG[1] (compute-mfcc-feats[5.5.931~1-aecd]:Read():wave-reader.cc:249) Read in RIFF chunk size: 4294967295, data chunk size: 4294967295. Assume 'stream mode' (reading data to EOF).
    Stream #0:0: Audio: pcm_s16le ([1][0][0][0] / 0x0001), 8000 Hz, mono, s16, 128 kb/s
    Metadata:
      encoder         : Lavc57.107.100 pcm_s16le
size=     107kB time=00:00:06.87 bitrate= 128.1kbits/s speed=11.3x    size=     525kB time=00:00:33.62 bitrate= 128.0kbits/s speed=  25x    size=    1501kB time=00:01:36.03 bitrate= 128.0kbits/s speed=45.1x    size=    1872kB time=00:01:59.81 bitrate= 128.0kbits/s speed=34.5x    size=    1875kB time=00:02:00.00 bitrate= 128.0kbits/s speed=34.5x    
video:0kB audio:1875kB subtitle:0kB other streams:0kB global headers:0kB muxing overhead: 0.004062%
VLOG[2] (compute-mfcc-feats[5.5.931~1-aecd]:main():compute-mfcc-feats.cc:182) Processed features for key utt-011F09
ffmpeg version 3.4.8-0ubuntu0.2 Copyright (c) 2000-2020 the FFmpeg developers
  built with gcc 7 (Ubuntu 7.5.0-3ubuntu1~18.04)
  configuration: --prefix=/usr --extra-version=0ubuntu0.2 --toolchain=hardened --libdir=/usr/lib/x86_64-linux-gnu --incdir=/usr/include/x86_64-linux-gnu --enable-gpl --disable-stripping --enable-avresample --enable-avisynth --enable-gnutls --enable-ladspa --enable-libass --enable-libbluray --enable-libbs2b --enable-libcaca --enable-libcdio --enable-libflite --enable-libfontconfig --enable-libfreetype --enable-libfribidi --enable-libgme --enable-libgsm --enable-libmp3lame --enable-libmysofa --enable-libopenjpeg --enable-libopenmpt --enable-libopus --enable-libpulse --enable-librubberband --enable-librsvg --enable-libshine --enable-libsnappy --enable-libsoxr --enable-libspeex --enable-libssh --enable-libtheora --enable-libtwolame --enable-libvorbis --enable-libvpx --enable-libwavpack --enable-libwebp --enable-libx265 --enable-libxml2 --enable-libxvid --enable-libzmq --enable-libzvbi --enable-omx --enable-openal --enable-opengl --enable-sdl2 --enable-libdc1394 --enable-libdrm --enable-libiec61883 --enable-chromaprint --enable-frei0r --enable-libopencv --enable-libx264 --enable-shared
  libavutil      55. 78.100 / 55. 78.100
  libavcodec     57.107.100 / 57.107.100
  libavformat    57. 83.100 / 57. 83.100
  libavdevice    57. 10.100 / 57. 10.100
  libavfilter     6.107.100 /  6.107.100
  libavresample   3.  7.  0 /  3.  7.  0
  libswscale      4.  8.100 /  4.  8.100
  libswresample   2.  9.100 /  2.  9.100
  libpostproc    54.  7.100 / 54.  7.100
Guessed Channel Layout for Input Stream #0.0 : mono
Input #0, wav, from '/media/kaldinew/data2/large-farsdat/CD6/011/Fixed/011F10.wav':
  Duration: 00:02:39.32, bitrate: 352 kb/s
    Stream #0:0: Audio: pcm_s16le ([1][0][0][0] / 0x0001), 22050 Hz, mono, s16, 352 kb/s
Stream mapping:
  Stream #0:0 -> #0:0 (pcm_s16le (native) -> pcm_s16le (native))
Press [q] to stop, [?] for help
Output #0, wav, to 'pipe:':
  Metadata:
    ISFT            : Lavf57.83.100
    Stream #0:0: Audio: pcm_s16le ([1][0][0][0] / 0x0001), 8000 Hz, mono, s16, 128 kb/s
    Metadata:
      encoder         : Lavc57.107.100 pcm_s16le
VLOG[1] (compute-mfcc-feats[5.5.931~1-aecd]:Read():wave-reader.cc:249) Read in RIFF chunk size: 4294967295, data chunk size: 4294967295. Assume 'stream mode' (reading data to EOF).
size=     107kB time=00:00:06.87 bitrate= 128.1kbits/s speed=10.2x    size=     386kB time=00:00:24.70 bitrate= 128.0kbits/s speed=16.8x    size=     479kB time=00:00:30.64 bitrate= 128.0kbits/s speed=14.8x    size=     897kB time=00:00:57.39 bitrate= 128.0kbits/s speed=19.8x    size=    1315kB time=00:01:24.14 bitrate= 128.0kbits/s speed=  24x    size=    1501kB time=00:01:36.03 bitrate= 128.0kbits/s speed=20.3x    size=    1875kB time=00:02:00.00 bitrate= 128.0kbits/s speed=25.3x    
video:0kB audio:1875kB subtitle:0kB other streams:0kB global headers:0kB muxing overhead: 0.004062%
VLOG[2] (compute-mfcc-feats[5.5.931~1-aecd]:main():compute-mfcc-feats.cc:182) Processed features for key utt-011F10
ffmpeg version 3.4.8-0ubuntu0.2 Copyright (c) 2000-2020 the FFmpeg developers
  built with gcc 7 (Ubuntu 7.5.0-3ubuntu1~18.04)
  configuration: --prefix=/usr --extra-version=0ubuntu0.2 --toolchain=hardened --libdir=/usr/lib/x86_64-linux-gnu --incdir=/usr/include/x86_64-linux-gnu --enable-gpl --disable-stripping --enable-avresample --enable-avisynth --enable-gnutls --enable-ladspa --enable-libass --enable-libbluray --enable-libbs2b --enable-libcaca --enable-libcdio --enable-libflite --enable-libfontconfig --enable-libfreetype --enable-libfribidi --enable-libgme --enable-libgsm --enable-libmp3lame --enable-libmysofa --enable-libopenjpeg --enable-libopenmpt --enable-libopus --enable-libpulse --enable-librubberband --enable-librsvg --enable-libshine --enable-libsnappy --enable-libsoxr --enable-libspeex --enable-libssh --enable-libtheora --enable-libtwolame --enable-libvorbis --enable-libvpx --enable-libwavpack --enable-libwebp --enable-libx265 --enable-libxml2 --enable-libxvid --enable-libzmq --enable-libzvbi --enable-omx --enable-openal --enable-opengl --enable-sdl2 --enable-libdc1394 --enable-libdrm --enable-libiec61883 --enable-chromaprint --enable-frei0r --enable-libopencv --enable-libx264 --enable-shared
  libavutil      55. 78.100 / 55. 78.100
  libavcodec     57.107.100 / 57.107.100
  libavformat    57. 83.100 / 57. 83.100
  libavdevice    57. 10.100 / 57. 10.100
  libavfilter     6.107.100 /  6.107.100
  libavresample   3.  7.  0 /  3.  7.  0
  libswscale      4.  8.100 /  4.  8.100
  libswresample   2.  9.100 /  2.  9.100
  libpostproc    54.  7.100 / 54.  7.100
Guessed Channel Layout for Input Stream #0.0 : mono
Input #0, wav, from '/media/kaldinew/data2/large-farsdat/CD6/012/Fixed/012F01.wav':
  Duration: 00:01:32.11, bitrate: 352 kb/s
    Stream #0:0: Audio: pcm_s16le ([1][0][0][0] / 0x0001), 22050 Hz, mono, s16, 352 kb/s
Stream mapping:
  Stream #0:0 -> #0:0 (pcm_s16le (native) -> pcm_s16le (native))
Press [q] to stop, [?] for help
Output #0, wav, to 'pipe:':
  Metadata:
    ISFT            : Lavf57.83.100
    Stream #0:0: Audio: pcm_s16le ([1][0][0][0] / 0x0001), 8000 Hz, mono, s16, 128 kb/s
    Metadata:
      encoder         : Lavc57.107.100 pcm_s16le
VLOG[1] (compute-mfcc-feats[5.5.931~1-aecd]:Read():wave-reader.cc:249) Read in RIFF chunk size: 4294967295, data chunk size: 4294967295. Assume 'stream mode' (reading data to EOF).
size=     943kB time=00:01:00.36 bitrate= 128.0kbits/s speed=64.9x    size=    1338kB time=00:01:25.63 bitrate= 128.0kbits/s speed=50.5x    size=    1439kB time=00:01:32.10 bitrate= 128.0kbits/s speed=54.2x    
video:0kB audio:1439kB subtitle:0kB other streams:0kB global headers:0kB muxing overhead: 0.005293%
VLOG[2] (compute-mfcc-feats[5.5.931~1-aecd]:main():compute-mfcc-feats.cc:182) Processed features for key utt-012F01
ffmpeg version 3.4.8-0ubuntu0.2 Copyright (c) 2000-2020 the FFmpeg developers
  built with gcc 7 (Ubuntu 7.5.0-3ubuntu1~18.04)
  configuration: --prefix=/usr --extra-version=0ubuntu0.2 --toolchain=hardened --libdir=/usr/lib/x86_64-linux-gnu --incdir=/usr/include/x86_64-linux-gnu --enable-gpl --disable-stripping --enable-avresample --enable-avisynth --enable-gnutls --enable-ladspa --enable-libass --enable-libbluray --enable-libbs2b --enable-libcaca --enable-libcdio --enable-libflite --enable-libfontconfig --enable-libfreetype --enable-libfribidi --enable-libgme --enable-libgsm --enable-libmp3lame --enable-libmysofa --enable-libopenjpeg --enable-libopenmpt --enable-libopus --enable-libpulse --enable-librubberband --enable-librsvg --enable-libshine --enable-libsnappy --enable-libsoxr --enable-libspeex --enable-libssh --enable-libtheora --enable-libtwolame --enable-libvorbis --enable-libvpx --enable-libwavpack --enable-libwebp --enable-libx265 --enable-libxml2 --enable-libxvid --enable-libzmq --enable-libzvbi --enable-omx --enable-openal --enable-opengl --enable-sdl2 --enable-libdc1394 --enable-libdrm --enable-libiec61883 --enable-chromaprint --enable-frei0r --enable-libopencv --enable-libx264 --enable-shared
  libavutil      55. 78.100 / 55. 78.100
  libavcodec     57.107.100 / 57.107.100
  libavformat    57. 83.100 / 57. 83.100
  libavdevice    57. 10.100 / 57. 10.100
  libavfilter     6.107.100 /  6.107.100
  libavresample   3.  7.  0 /  3.  7.  0
  libswscale      4.  8.100 /  4.  8.100
  libswresample   2.  9.100 /  2.  9.100
  libpostproc    54.  7.100 / 54.  7.100
Guessed Channel Layout for Input Stream #0.0 : mono
Input #0, wav, from '/media/kaldinew/data2/large-farsdat/CD6/012/Fixed/012F02.wav':
  Duration: 00:01:58.83, bitrate: 352 kb/s
    Stream #0:0: Audio: pcm_s16le ([1][0][0][0] / 0x0001), 22050 Hz, mono, s16, 352 kb/s
Stream mapping:
  Stream #0:0 -> #0:0 (pcm_s16le (native) -> pcm_s16le (native))
Press [q] to stop, [?] for help
Output #0, wav, to 'pipe:':
  Metadata:
    ISFT            : Lavf57.83.100
VLOG[1] (compute-mfcc-feats[5.5.931~1-aecd]:Read():wave-reader.cc:249) Read in RIFF chunk size: 4294967295, data chunk size: 4294967295. Assume 'stream mode' (reading data to EOF).
    Stream #0:0: Audio: pcm_s16le ([1][0][0][0] / 0x0001), 8000 Hz, mono, s16, 128 kb/s
    Metadata:
      encoder         : Lavc57.107.100 pcm_s16le
size=     107kB time=00:00:06.87 bitrate= 128.1kbits/s speed=8.19x    size=     572kB time=00:00:36.59 bitrate= 128.0kbits/s speed=24.9x    size=    1036kB time=00:01:06.31 bitrate= 128.0kbits/s speed=26.4x    size=    1501kB time=00:01:36.03 bitrate= 128.0kbits/s speed=31.6x    size=    1857kB time=00:01:58.83 bitrate= 128.0kbits/s speed=  39x    
video:0kB audio:1857kB subtitle:0kB other streams:0kB global headers:0kB muxing overhead: 0.004102%
VLOG[2] (compute-mfcc-feats[5.5.931~1-aecd]:main():compute-mfcc-feats.cc:182) Processed features for key utt-012F02
ffmpeg version 3.4.8-0ubuntu0.2 Copyright (c) 2000-2020 the FFmpeg developers
  built with gcc 7 (Ubuntu 7.5.0-3ubuntu1~18.04)
  configuration: --prefix=/usr --extra-version=0ubuntu0.2 --toolchain=hardened --libdir=/usr/lib/x86_64-linux-gnu --incdir=/usr/include/x86_64-linux-gnu --enable-gpl --disable-stripping --enable-avresample --enable-avisynth --enable-gnutls --enable-ladspa --enable-libass --enable-libbluray --enable-libbs2b --enable-libcaca --enable-libcdio --enable-libflite --enable-libfontconfig --enable-libfreetype --enable-libfribidi --enable-libgme --enable-libgsm --enable-libmp3lame --enable-libmysofa --enable-libopenjpeg --enable-libopenmpt --enable-libopus --enable-libpulse --enable-librubberband --enable-librsvg --enable-libshine --enable-libsnappy --enable-libsoxr --enable-libspeex --enable-libssh --enable-libtheora --enable-libtwolame --enable-libvorbis --enable-libvpx --enable-libwavpack --enable-libwebp --enable-libx265 --enable-libxml2 --enable-libxvid --enable-libzmq --enable-libzvbi --enable-omx --enable-openal --enable-opengl --enable-sdl2 --enable-libdc1394 --enable-libdrm --enable-libiec61883 --enable-chromaprint --enable-frei0r --enable-libopencv --enable-libx264 --enable-shared
  libavutil      55. 78.100 / 55. 78.100
  libavcodec     57.107.100 / 57.107.100
  libavformat    57. 83.100 / 57. 83.100
  libavdevice    57. 10.100 / 57. 10.100
  libavfilter     6.107.100 /  6.107.100
  libavresample   3.  7.  0 /  3.  7.  0
  libswscale      4.  8.100 /  4.  8.100
  libswresample   2.  9.100 /  2.  9.100
  libpostproc    54.  7.100 / 54.  7.100
Guessed Channel Layout for Input Stream #0.0 : mono
Input #0, wav, from '/media/kaldinew/data2/large-farsdat/CD6/012/Fixed/012F03.wav':
  Duration: 00:01:58.47, bitrate: 352 kb/s
    Stream #0:0: Audio: pcm_s16le ([1][0][0][0] / 0x0001), 22050 Hz, mono, s16, 352 kb/s
Stream mapping:
  Stream #0:0 -> #0:0 (pcm_s16le (native) -> pcm_s16le (native))
Press [q] to stop, [?] for help
Output #0, wav, to 'pipe:':
  Metadata:
    ISFT            : Lavf57.83.100
    Stream #0:0VLOG[1] (compute-mfcc-feats[5.5.931~1-aecd]:Read():wave-reader.cc:249) Read in RIFF chunk size: 4294967295, data chunk size: 4294967295. Assume 'stream mode' (reading data to EOF).
: Audio: pcm_s16le ([1][0][0][0] / 0x0001), 8000 Hz, mono, s16, 128 kb/s
    Metadata:
      encoder         : Lavc57.107.100 pcm_s16le
size=     107kB time=00:00:06.87 bitrate= 128.1kbits/s speed=13.1x    size=     525kB time=00:00:33.62 bitrate= 128.0kbits/s speed=23.4x    size=     990kB time=00:01:03.34 bitrate= 128.0kbits/s speed=29.7x    size=    1454kB time=00:01:33.06 bitrate= 128.0kbits/s speed=32.5x    size=    1851kB time=00:01:58.47 bitrate= 128.0kbits/s speed=  36x    
video:0kB audio:1851kB subtitle:0kB other streams:0kB global headers:0kB muxing overhead: 0.004115%
VLOG[2] (compute-mfcc-feats[5.5.931~1-aecd]:main():compute-mfcc-feats.cc:182) Processed features for key utt-012F03
ffmpeg version 3.4.8-0ubuntu0.2 Copyright (c) 2000-2020 the FFmpeg developers
  built with gcc 7 (Ubuntu 7.5.0-3ubuntu1~18.04)
  configuration: --prefix=/usr --extra-version=0ubuntu0.2 --toolchain=hardened --libdir=/usr/lib/x86_64-linux-gnu --incdir=/usr/include/x86_64-linux-gnu --enable-gpl --disable-stripping --enable-avresample --enable-avisynth --enable-gnutls --enable-ladspa --enable-libass --enable-libbluray --enable-libbs2b --enable-libcaca --enable-libcdio --enable-libflite --enable-libfontconfig --enable-libfreetype --enable-libfribidi --enable-libgme --enable-libgsm --enable-libmp3lame --enable-libmysofa --enable-libopenjpeg --enable-libopenmpt --enable-libopus --enable-libpulse --enable-librubberband --enable-librsvg --enable-libshine --enable-libsnappy --enable-libsoxr --enable-libspeex --enable-libssh --enable-libtheora --enable-libtwolame --enable-libvorbis --enable-libvpx --enable-libwavpack --enable-libwebp --enable-libx265 --enable-libxml2 --enable-libxvid --enable-libzmq --enable-libzvbi --enable-omx --enable-openal --enable-opengl --enable-sdl2 --enable-libdc1394 --enable-libdrm --enable-libiec61883 --enable-chromaprint --enable-frei0r --enable-libopencv --enable-libx264 --enable-shared
  libavutil      55. 78.100 / 55. 78.100
  libavcodec     57.107.100 / 57.107.100
  libavformat    57. 83.100 / 57. 83.100
  libavdevice    57. 10.100 / 57. 10.100
  libavfilter     6.107.100 /  6.107.100
  libavresample   3.  7.  0 /  3.  7.  0
  libswscale      4.  8.100 /  4.  8.100
  libswresample   2.  9.100 /  2.  9.100
  libpostproc    54.  7.100 / 54.  7.100
Guessed Channel Layout for Input Stream #0.0 : mono
Input #0, wav, from '/media/kaldinew/data2/large-farsdat/CD6/012/Fixed/012F04.wav':
  Duration: 00:01:49.65, bitrate: 352 kb/s
    Stream #0:0: Audio: pcm_s16le ([1][0][0][0] / 0x0001), 22050 Hz, mono, s16, 352 kb/s
Stream mapping:
  Stream #0:0 -> #0:0 (pcm_s16le (native) -> pcm_s16le (native))
Press [q] to stop, [?] for help
Output #0, wav, to 'pipe:':
  Metadata:
    ISFT            : Lavf57.83.100
VLOG[1] (compute-mfcc-feats[5.5.931~1-aecd]:Read():wave-reader.cc:249) Read in RIFF chunk size: 4294967295, data chunk size: 4294967295. Assume 'stream mode' (reading data to EOF).
    Stream #0:0: Audio: pcm_s16le ([1][0][0][0] / 0x0001), 8000 Hz, mono, s16, 128 kb/s
    Metadata:
      encoder         : Lavc57.107.100 pcm_s16le
size=     107kB time=00:00:06.87 bitrate= 128.1kbits/s speed=10.2x    size=     525kB time=00:00:33.62 bitrate= 128.0kbits/s speed=  22x    size=     990kB time=00:01:03.34 bitrate= 128.0kbits/s speed=28.2x    size=    1454kB time=00:01:33.06 bitrate= 128.0kbits/s speed=31.7x    size=    1713kB time=00:01:49.65 bitrate= 128.0kbits/s speed=37.2x    
video:0kB audio:1713kB subtitle:0kB other streams:0kB global headers:0kB muxing overhead: 0.004446%
VLOG[2] (compute-mfcc-feats[5.5.931~1-aecd]:main():compute-mfcc-feats.cc:182) Processed features for key utt-012F04
ffmpeg version 3.4.8-0ubuntu0.2 Copyright (c) 2000-2020 the FFmpeg developers
  built with gcc 7 (Ubuntu 7.5.0-3ubuntu1~18.04)
  configuration: --prefix=/usr --extra-version=0ubuntu0.2 --toolchain=hardened --libdir=/usr/lib/x86_64-linux-gnu --incdir=/usr/include/x86_64-linux-gnu --enable-gpl --disable-stripping --enable-avresample --enable-avisynth --enable-gnutls --enable-ladspa --enable-libass --enable-libbluray --enable-libbs2b --enable-libcaca --enable-libcdio --enable-libflite --enable-libfontconfig --enable-libfreetype --enable-libfribidi --enable-libgme --enable-libgsm --enable-libmp3lame --enable-libmysofa --enable-libopenjpeg --enable-libopenmpt --enable-libopus --enable-libpulse --enable-librubberband --enable-librsvg --enable-libshine --enable-libsnappy --enable-libsoxr --enable-libspeex --enable-libssh --enable-libtheora --enable-libtwolame --enable-libvorbis --enable-libvpx --enable-libwavpack --enable-libwebp --enable-libx265 --enable-libxml2 --enable-libxvid --enable-libzmq --enable-libzvbi --enable-omx --enable-openal --enable-opengl --enable-sdl2 --enable-libdc1394 --enable-libdrm --enable-libiec61883 --enable-chromaprint --enable-frei0r --enable-libopencv --enable-libx264 --enable-shared
  libavutil      55. 78.100 / 55. 78.100
  libavcodec     57.107.100 / 57.107.100
  libavformat    57. 83.100 / 57. 83.100
  libavdevice    57. 10.100 / 57. 10.100
  libavfilter     6.107.100 /  6.107.100
  libavresample   3.  7.  0 /  3.  7.  0
  libswscale      4.  8.100 /  4.  8.100
  libswresample   2.  9.100 /  2.  9.100
  libpostproc    54.  7.100 / 54.  7.100
Guessed Channel Layout for Input Stream #0.0 : mono
Input #0, wav, from '/media/kaldinew/data2/large-farsdat/CD6/012/Fixed/012F05.wav':
  Duration: 00:01:44.57, bitrate: 352 kb/s
    Stream #0:0: Audio: pcm_s16le ([1][0][0][0] / 0x0001), 22050 Hz, mono, s16, 352 kb/s
Stream mapping:
  Stream #0:0 -> #0:0 (pcm_s16le (native) -> pcm_s16le (native))
Press [q] to stop, [?] for help
Output #0, wav, to 'pipe:':
  Metadata:
    ISFT            : Lavf57.83.100
VLOG[1] (compute-mfcc-feats[5.5.931~1-aecd]:Read():wave-reader.cc:249) Read in RIFF chunk size: 4294967295, data chunk size: 4294967295. Assume 'stream mode' (reading data to EOF).
    Stream #0:0: Audio: pcm_s16le ([1][0][0][0] / 0x0001), 8000 Hz, mono, s16, 128 kb/s
    Metadata:
      encoder         : Lavc57.107.100 pcm_s16le
size=     107kB time=00:00:06.87 bitrate= 128.1kbits/s speed=10.4x    size=     525kB time=00:00:33.62 bitrate= 128.0kbits/s speed=25.9x    size=     897kB time=00:00:57.39 bitrate= 128.0kbits/s speed=23.2x    size=    1385kB time=00:01:28.60 bitrate= 128.0kbits/s speed=29.8x    size=    1634kB time=00:01:44.56 bitrate= 128.0kbits/s speed=35.1x    
video:0kB audio:1634kB subtitle:0kB other streams:0kB global headers:0kB muxing overhead: 0.004662%
LOG (compute-mfcc-feats[5.5.931~1-aecd]:main():compute-mfcc-feats.cc:181) Processed 10 utterances
VLOG[2] (compute-mfcc-feats[5.5.931~1-aecd]:main():compute-mfcc-feats.cc:182) Processed features for key utt-012F05
ffmpeg version 3.4.8-0ubuntu0.2 Copyright (c) 2000-2020 the FFmpeg developers
  built with gcc 7 (Ubuntu 7.5.0-3ubuntu1~18.04)
  configuration: --prefix=/usr --extra-version=0ubuntu0.2 --toolchain=hardened --libdir=/usr/lib/x86_64-linux-gnu --incdir=/usr/include/x86_64-linux-gnu --enable-gpl --disable-stripping --enable-avresample --enable-avisynth --enable-gnutls --enable-ladspa --enable-libass --enable-libbluray --enable-libbs2b --enable-libcaca --enable-libcdio --enable-libflite --enable-libfontconfig --enable-libfreetype --enable-libfribidi --enable-libgme --enable-libgsm --enable-libmp3lame --enable-libmysofa --enable-libopenjpeg --enable-libopenmpt --enable-libopus --enable-libpulse --enable-librubberband --enable-librsvg --enable-libshine --enable-libsnappy --enable-libsoxr --enable-libspeex --enable-libssh --enable-libtheora --enable-libtwolame --enable-libvorbis --enable-libvpx --enable-libwavpack --enable-libwebp --enable-libx265 --enable-libxml2 --enable-libxvid --enable-libzmq --enable-libzvbi --enable-omx --enable-openal --enable-opengl --enable-sdl2 --enable-libdc1394 --enable-libdrm --enable-libiec61883 --enable-chromaprint --enable-frei0r --enable-libopencv --enable-libx264 --enable-shared
  libavutil      55. 78.100 / 55. 78.100
  libavcodec     57.107.100 / 57.107.100
  libavformat    57. 83.100 / 57. 83.100
  libavdevice    57. 10.100 / 57. 10.100
  libavfilter     6.107.100 /  6.107.100
  libavresample   3.  7.  0 /  3.  7.  0
  libswscale      4.  8.100 /  4.  8.100
  libswresample   2.  9.100 /  2.  9.100
  libpostproc    54.  7.100 / 54.  7.100
Guessed Channel Layout for Input Stream #0.0 : mono
Input #0, wav, from '/media/kaldinew/data2/large-farsdat/CD6/012/Fixed/012F06.wav':
  Duration: 00:01:54.94, bitrate: 352 kb/s
    Stream #0:0: Audio: pcm_s16le ([1][0][0][0] / 0x0001), 22050 Hz, mono, s16, 352 kb/s
Stream mapping:
  Stream #0:0 -> #0:0 (pcm_s16le (native) -> pcm_s16le (native))
Press [q] to stop, [?] for help
Output #0, wav, to 'pipe:':
  Metadata:
    ISFT            : Lavf57.83.100
    Stream #0:0: Audio: pcm_s16le ([1][0][0][0] / 0x0001), 8000 Hz, mono, s16, 128 kb/s
    Metadata:
      encoder         : Lavc57.107.100 pcm_s16leVLOG[1] (compute-mfcc-feats[5.5.931~1-aecd]:Read():wave-reader.cc:249) Read in RIFF chunk size: 4294967295, data chunk size: 4294967295. Assume 'stream mode' (reading data to EOF).

size=     107kB time=00:00:06.87 bitrate= 128.1kbits/s speed=10.8x    size=     525kB time=00:00:33.62 bitrate= 128.0kbits/s speed=26.8x    size=     618kB time=00:00:39.56 bitrate= 128.0kbits/s speed=  22x    size=     943kB time=00:01:00.36 bitrate= 128.0kbits/s speed=18.6x    size=    1361kB time=00:01:27.11 bitrate= 128.0kbits/s speed=  23x    size=    1796kB time=00:01:54.94 bitrate= 128.0kbits/s speed=30.2x    
video:0kB audio:1796kB subtitle:0kB other streams:0kB global headers:0kB muxing overhead: 0.004241%
VLOG[2] (compute-mfcc-feats[5.5.931~1-aecd]:main():compute-mfcc-feats.cc:182) Processed features for key utt-012F06
ffmpeg version 3.4.8-0ubuntu0.2 Copyright (c) 2000-2020 the FFmpeg developers
  built with gcc 7 (Ubuntu 7.5.0-3ubuntu1~18.04)
  configuration: --prefix=/usr --extra-version=0ubuntu0.2 --toolchain=hardened --libdir=/usr/lib/x86_64-linux-gnu --incdir=/usr/include/x86_64-linux-gnu --enable-gpl --disable-stripping --enable-avresample --enable-avisynth --enable-gnutls --enable-ladspa --enable-libass --enable-libbluray --enable-libbs2b --enable-libcaca --enable-libcdio --enable-libflite --enable-libfontconfig --enable-libfreetype --enable-libfribidi --enable-libgme --enable-libgsm --enable-libmp3lame --enable-libmysofa --enable-libopenjpeg --enable-libopenmpt --enable-libopus --enable-libpulse --enable-librubberband --enable-librsvg --enable-libshine --enable-libsnappy --enable-libsoxr --enable-libspeex --enable-libssh --enable-libtheora --enable-libtwolame --enable-libvorbis --enable-libvpx --enable-libwavpack --enable-libwebp --enable-libx265 --enable-libxml2 --enable-libxvid --enable-libzmq --enable-libzvbi --enable-omx --enable-openal --enable-opengl --enable-sdl2 --enable-libdc1394 --enable-libdrm --enable-libiec61883 --enable-chromaprint --enable-frei0r --enable-libopencv --enable-libx264 --enable-shared
  libavutil      55. 78.100 / 55. 78.100
  libavcodec     57.107.100 / 57.107.100
  libavformat    57. 83.100 / 57. 83.100
  libavdevice    57. 10.100 / 57. 10.100
  libavfilter     6.107.100 /  6.107.100
  libavresample   3.  7.  0 /  3.  7.  0
  libswscale      4.  8.100 /  4.  8.100
  libswresample   2.  9.100 /  2.  9.100
  libpostproc    54.  7.100 / 54.  7.100
Guessed Channel Layout for Input Stream #0.0 : mono
Input #0, wav, from '/media/kaldinew/data2/large-farsdat/CD6/012/Fixed/012F07.wav':
  Duration: 00:01:52.83, bitrate: 352 kb/s
    Stream #0:0: Audio: pcm_s16le ([1][0][0][0] / 0x0001), 22050 Hz, mono, s16, 352 kb/s
Stream mapping:
  Stream #0:0 -> #0:0 (pcm_s16le (native) -> pcm_s16le (native))
Press [q] to stop, [?] for help
Output #0, wav, to 'pipe:':
  Metadata:
    ISFT            : Lavf57.83.100
VLOG[1] (compute-mfcc-feats[5.5.931~1-aecd]:Read():wave-reader.cc:249) Read in RIFF chunk size: 4294967295, data chunk size: 4294967295. Assume 'stream mode' (reading data to EOF).
    Stream #0:0: Audio: pcm_s16le ([1][0][0][0] / 0x0001), 8000 Hz, mono, s16, 128 kb/s
    Metadata:
      encoder         : Lavc57.107.100 pcm_s16le
size=     107kB time=00:00:06.87 bitrate= 128.1kbits/s speed=10.8x    size=     479kB time=00:00:30.64 bitrate= 128.0kbits/s speed=22.3x    size=     897kB time=00:00:57.39 bitrate= 128.0kbits/s speed=28.7x    size=    1315kB time=00:01:24.14 bitrate= 128.0kbits/s speed=30.9x    size=    1733kB time=00:01:50.89 bitrate= 128.0kbits/s speed=29.2x    size=    1763kB time=00:01:52.82 bitrate= 128.0kbits/s speed=29.7x    
video:0kB audio:1763kB subtitle:0kB other streams:0kB global headers:0kB muxing overhead: 0.004321%
VLOG[2] (compute-mfcc-feats[5.5.931~1-aecd]:main():compute-mfcc-feats.cc:182) Processed features for key utt-012F07
ffmpeg version 3.4.8-0ubuntu0.2 Copyright (c) 2000-2020 the FFmpeg developers
  built with gcc 7 (Ubuntu 7.5.0-3ubuntu1~18.04)
  configuration: --prefix=/usr --extra-version=0ubuntu0.2 --toolchain=hardened --libdir=/usr/lib/x86_64-linux-gnu --incdir=/usr/include/x86_64-linux-gnu --enable-gpl --disable-stripping --enable-avresample --enable-avisynth --enable-gnutls --enable-ladspa --enable-libass --enable-libbluray --enable-libbs2b --enable-libcaca --enable-libcdio --enable-libflite --enable-libfontconfig --enable-libfreetype --enable-libfribidi --enable-libgme --enable-libgsm --enable-libmp3lame --enable-libmysofa --enable-libopenjpeg --enable-libopenmpt --enable-libopus --enable-libpulse --enable-librubberband --enable-librsvg --enable-libshine --enable-libsnappy --enable-libsoxr --enable-libspeex --enable-libssh --enable-libtheora --enable-libtwolame --enable-libvorbis --enable-libvpx --enable-libwavpack --enable-libwebp --enable-libx265 --enable-libxml2 --enable-libxvid --enable-libzmq --enable-libzvbi --enable-omx --enable-openal --enable-opengl --enable-sdl2 --enable-libdc1394 --enable-libdrm --enable-libiec61883 --enable-chromaprint --enable-frei0r --enable-libopencv --enable-libx264 --enable-shared
  libavutil      55. 78.100 / 55. 78.100
  libavcodec     57.107.100 / 57.107.100
  libavformat    57. 83.100 / 57. 83.100
  libavdevice    57. 10.100 / 57. 10.100
  libavfilter     6.107.100 /  6.107.100
  libavresample   3.  7.  0 /  3.  7.  0
  libswscale      4.  8.100 /  4.  8.100
  libswresample   2.  9.100 /  2.  9.100
  libpostproc    54.  7.100 / 54.  7.100
Guessed Channel Layout for Input Stream #0.0 : mono
Input #0, wav, from '/media/kaldinew/data2/large-farsdat/CD6/012/Fixed/012F08.wav':
  Duration: 00:01:42.29, bitrate: 352 kb/s
    Stream #0:0: Audio: pcm_s16le ([1][0][0][0] / 0x0001), 22050 Hz, mono, s16, 352 kb/s
Stream mapping:
  Stream #0:0 -> #0:0 (pcm_s16le (native) -> pcm_s16le (native))
Press [q] to stop, [?] for help
Output #0, wav, to 'pipe:':
  Metadata:
    ISFT            : Lavf57.83.100
    Stream #0:0: Audio: pcm_s16le ([1][0][0][0] / 0x0001), 8000 Hz, mono, s16, 128 kb/sVLOG[1] (compute-mfcc-feats[5.5.931~1-aecd]:Read():wave-reader.cc:249) Read in RIFF chunk size: 4294967295, data chunk size: 4294967295. Assume 'stream mode' (reading data to EOF).

    Metadata:
      encoder         : Lavc57.107.100 pcm_s16le
size=     107kB time=00:00:06.87 bitrate= 128.1kbits/s speed=8.49x    size=     502kB time=00:00:32.13 bitrate= 128.0kbits/s speed=  18x    size=     967kB time=00:01:01.85 bitrate= 128.0kbits/s speed=20.1x    size=    1431kB time=00:01:31.57 bitrate= 128.0kbits/s speed=24.1x    size=    1598kB time=00:01:42.29 bitrate= 128.0kbits/s speed=26.9x    
video:0kB audio:1598kB subtitle:0kB other streams:0kB global headers:0kB muxing overhead: 0.004766%
VLOG[2] (compute-mfcc-feats[5.5.931~1-aecd]:main():compute-mfcc-feats.cc:182) Processed features for key utt-012F08
ffmpeg version 3.4.8-0ubuntu0.2 Copyright (c) 2000-2020 the FFmpeg developers
  built with gcc 7 (Ubuntu 7.5.0-3ubuntu1~18.04)
  configuration: --prefix=/usr --extra-version=0ubuntu0.2 --toolchain=hardened --libdir=/usr/lib/x86_64-linux-gnu --incdir=/usr/include/x86_64-linux-gnu --enable-gpl --disable-stripping --enable-avresample --enable-avisynth --enable-gnutls --enable-ladspa --enable-libass --enable-libbluray --enable-libbs2b --enable-libcaca --enable-libcdio --enable-libflite --enable-libfontconfig --enable-libfreetype --enable-libfribidi --enable-libgme --enable-libgsm --enable-libmp3lame --enable-libmysofa --enable-libopenjpeg --enable-libopenmpt --enable-libopus --enable-libpulse --enable-librubberband --enable-librsvg --enable-libshine --enable-libsnappy --enable-libsoxr --enable-libspeex --enable-libssh --enable-libtheora --enable-libtwolame --enable-libvorbis --enable-libvpx --enable-libwavpack --enable-libwebp --enable-libx265 --enable-libxml2 --enable-libxvid --enable-libzmq --enable-libzvbi --enable-omx --enable-openal --enable-opengl --enable-sdl2 --enable-libdc1394 --enable-libdrm --enable-libiec61883 --enable-chromaprint --enable-frei0r --enable-libopencv --enable-libx264 --enable-shared
  libavutil      55. 78.100 / 55. 78.100
  libavcodec     57.107.100 / 57.107.100
  libavformat    57. 83.100 / 57. 83.100
  libavdevice    57. 10.100 / 57. 10.100
  libavfilter     6.107.100 /  6.107.100
  libavresample   3.  7.  0 /  3.  7.  0
  libswscale      4.  8.100 /  4.  8.100
  libswresample   2.  9.100 /  2.  9.100
  libpostproc    54.  7.100 / 54.  7.100
Guessed Channel Layout for Input Stream #0.0 : mono
Input #0, wav, from '/media/kaldinew/data2/large-farsdat/CD6/012/Fixed/012F09.wav':
  Duration: 00:01:53.25, bitrate: 352 kb/s
    Stream #0:0: Audio: pcm_s16le ([1][0][0][0] / 0x0001), 22050 Hz, mono, s16, 352 kb/s
Stream mapping:
  Stream #0:0 -> #0:0 (pcm_s16le (native) -> pcm_s16le (native))
Press [q] to stop, [?] for help
Output #0, wav, to 'pipe:':
  Metadata:
    ISFT            : Lavf57.83.100
    Stream #0:0: Audio: pcm_s16le ([1][0][0][0] / 0x0001), 8000 Hz, mono, s16, 128 kb/s
    Metadata:
      encoder         : Lavc57.107.100 pcm_s16le
VLOG[1] (compute-mfcc-feats[5.5.931~1-aecd]:Read():wave-reader.cc:249) Read in RIFF chunk size: 4294967295, data chunk size: 4294967295. Assume 'stream mode' (reading data to EOF).
size=     107kB time=00:00:06.87 bitrate= 128.1kbits/s speed=2.66x    size=     456kB time=00:00:29.16 bitrate= 128.0kbits/s speed=4.88x    size=     920kB time=00:00:58.88 bitrate= 128.0kbits/s speed=6.59x    size=    1385kB time=00:01:28.60 bitrate= 128.0kbits/s speed=7.89x    size=    1770kB time=00:01:53.25 bitrate= 128.0kbits/s speed=10.1x    
video:0kB audio:1770kB subtitle:0kB other streams:0kB global headers:0kB muxing overhead: 0.004305%
VLOG[2] (compute-mfcc-feats[5.5.931~1-aecd]:main():compute-mfcc-feats.cc:182) Processed features for key utt-012F09
ffmpeg version 3.4.8-0ubuntu0.2 Copyright (c) 2000-2020 the FFmpeg developers
  built with gcc 7 (Ubuntu 7.5.0-3ubuntu1~18.04)
  configuration: --prefix=/usr --extra-version=0ubuntu0.2 --toolchain=hardened --libdir=/usr/lib/x86_64-linux-gnu --incdir=/usr/include/x86_64-linux-gnu --enable-gpl --disable-stripping --enable-avresample --enable-avisynth --enable-gnutls --enable-ladspa --enable-libass --enable-libbluray --enable-libbs2b --enable-libcaca --enable-libcdio --enable-libflite --enable-libfontconfig --enable-libfreetype --enable-libfribidi --enable-libgme --enable-libgsm --enable-libmp3lame --enable-libmysofa --enable-libopenjpeg --enable-libopenmpt --enable-libopus --enable-libpulse --enable-librubberband --enable-librsvg --enable-libshine --enable-libsnappy --enable-libsoxr --enable-libspeex --enable-libssh --enable-libtheora --enable-libtwolame --enable-libvorbis --enable-libvpx --enable-libwavpack --enable-libwebp --enable-libx265 --enable-libxml2 --enable-libxvid --enable-libzmq --enable-libzvbi --enable-omx --enable-openal --enable-opengl --enable-sdl2 --enable-libdc1394 --enable-libdrm --enable-libiec61883 --enable-chromaprint --enable-frei0r --enable-libopencv --enable-libx264 --enable-shared
  libavutil      55. 78.100 / 55. 78.100
  libavcodec     57.107.100 / 57.107.100
  libavformat    57. 83.100 / 57. 83.100
  libavdevice    57. 10.100 / 57. 10.100
  libavfilter     6.107.100 /  6.107.100
  libavresample   3.  7.  0 /  3.  7.  0
  libswscale      4.  8.100 /  4.  8.100
  libswresample   2.  9.100 /  2.  9.100
  libpostproc    54.  7.100 / 54.  7.100
Guessed Channel Layout for Input Stream #0.0 : mono
Input #0, wav, from '/media/kaldinew/data2/large-farsdat/CD6/012/Fixed/012F10.wav':
  Duration: 00:01:46.15, bitrate: 352 kb/s
    Stream #0:0: Audio: pcm_s16le ([1][0][0][0] / 0x0001), 22050 Hz, mono, s16, 352 kb/s
Stream mapping:
  Stream #0:0 -> #0:0 (pcm_s16le (native) -> pcm_s16le (native))
Press [q] to stop, [?] for help
Output #0, wav, to 'pipe:':
  Metadata:
    ISFT            : Lavf57.83.100
    Stream #0:0: Audio: pcm_s16le ([1][0][0][0] / 0x0001), 8000 Hz, mono, s16, 128 kb/s
    Metadata:
      encoder         : VLOG[1] (compute-mfcc-feats[5.5.931~1-aecd]:Read():wave-reader.cc:249) Read in RIFF chunk size: 4294967295, data chunk size: 4294967295. Assume 'stream mode' (reading data to EOF).
Lavc57.107.100 pcm_s16le
size=     107kB time=00:00:06.87 bitrate= 128.1kbits/s speed=4.21x    size=     827kB time=00:00:52.93 bitrate= 128.0kbits/s speed=16.9x    size=    1524kB time=00:01:37.52 bitrate= 128.0kbits/s speed=20.7x    size=    1659kB time=00:01:46.15 bitrate= 128.0kbits/s speed=21.5x    
video:0kB audio:1659kB subtitle:0kB other streams:0kB global headers:0kB muxing overhead: 0.004593%
VLOG[2] (compute-mfcc-feats[5.5.931~1-aecd]:main():compute-mfcc-feats.cc:182) Processed features for key utt-012F10
LOG (compute-mfcc-feats[5.5.931~1-aecd]:main():compute-mfcc-feats.cc:185)  Done 15 out of 15 utterances.
LOG (copy-feats[5.5.931~1-aecd]:main():copy-feats.cc:143) Copied 15 feature matrices.
# Accounting: time=74 threads=1
# Ended (code 0) at Mon Jun 21 15:39:08 EDT 2021, elapsed time 74 seconds
